<svg width="76" height="76" viewBox="0 0 76 76" fill="none" xmlns="http://www.w3.org/2000/svg">
<path d="M38.0001 6.84683C48.1464 6.84683 49.3483 6.88559 53.3553 7.06841C57.0602 7.23735 59.0723 7.8564 60.4113 8.3768C62.1851 9.06614 63.4509 9.88958 64.7806 11.2192C66.1104 12.5491 66.9338 13.8149 67.6232 15.5886C68.1436 16.9277 68.7626 18.9397 68.9316 22.6447C69.1144 26.6516 69.1532 27.8535 69.1532 37.9998C69.1532 48.1463 69.1144 49.3482 68.9316 53.3551C68.7626 57.06 68.1436 59.0721 67.6232 60.4111C66.9338 62.1848 66.1104 63.4507 64.7807 64.7804C63.4509 66.1102 62.1851 66.9336 60.4113 67.623C59.0723 68.1434 57.0602 68.7624 53.3553 68.9314C49.3489 69.1142 48.1472 69.1529 38.0001 69.1529C27.8528 69.1529 26.6512 69.1142 22.6448 68.9314C18.9398 68.7624 16.9277 68.1434 15.5887 67.623C13.815 66.9336 12.5491 66.1102 11.2194 64.7804C9.88977 63.4507 9.06618 62.1848 8.37683 60.4111C7.85643 59.0721 7.23738 57.06 7.06843 53.3551C6.88562 49.3482 6.84685 48.1463 6.84685 37.9998C6.84685 27.8535 6.88562 26.6516 7.06843 22.6447C7.23738 18.9397 7.85643 16.9277 8.37683 15.5886C9.06618 13.8149 9.88962 12.5491 11.2194 11.2194C12.5491 9.88958 13.815 9.06614 15.5887 8.3768C16.9277 7.8564 18.9398 7.23735 22.6448 7.06841C26.6517 6.88559 27.8536 6.84683 38.0001 6.84683ZM38.0001 1.52588e-05C27.6798 1.52588e-05 26.3858 0.0437591 22.3327 0.22869C18.288 0.413168 15.5256 1.0556 13.1086 1.99488C10.6097 2.966 8.49057 4.26534 6.37788 6.37786C4.26535 8.49054 2.96601 10.6097 1.99504 13.1085C1.0556 15.5256 0.413169 18.2879 0.228691 22.3326C0.0437592 26.3857 1.52588e-05 27.6797 1.52588e-05 37.9998C1.52588e-05 48.32 0.0437592 49.6141 0.228691 53.6672C0.413169 57.7118 1.0556 60.4742 1.99504 62.8912C2.96601 65.3901 4.26535 67.5092 6.37788 69.6219C8.49057 71.7344 10.6097 73.0338 13.1086 74.0047C15.5256 74.9442 18.288 75.5866 22.3327 75.7711C26.3858 75.956 27.6798 75.9997 38.0001 75.9997C48.3202 75.9997 49.6143 75.956 53.6674 75.7711C57.712 75.5866 60.4744 74.9442 62.8915 74.0047C65.3903 73.0338 67.5095 71.7344 69.6221 69.6219C71.7347 67.5092 73.034 65.3901 74.0051 62.8912C74.9444 60.4742 75.5869 57.7118 75.7713 53.6672C75.9563 49.6141 76 48.32 76 37.9998C76 27.6797 75.9563 26.3857 75.7713 22.3326C75.5869 18.2879 74.9444 15.5256 74.0051 13.1085C73.034 10.6097 71.7347 8.49054 69.6221 6.37786C67.5095 4.26534 65.3903 2.966 62.8915 1.99488C60.4744 1.0556 57.712 0.413168 53.6674 0.22869C49.6143 0.0437591 48.3202 1.52588e-05 38.0001 1.52588e-05Z" fill="white"/>
<path d="M38.0177 18.5042C27.2406 18.5042 18.5042 27.2405 18.5042 38.0175C18.5042 48.7946 27.2406 57.531 38.0177 57.531C48.7947 57.531 57.5312 48.7946 57.5312 38.0175C57.5312 27.2405 48.7947 18.5042 38.0177 18.5042ZM38.0177 50.6842C31.022 50.6842 25.351 45.0132 25.351 38.0175C25.351 31.022 31.022 25.351 38.0177 25.351C45.0133 25.351 50.6843 31.022 50.6843 38.0175C50.6843 45.0132 45.0133 50.6842 38.0177 50.6842Z" fill="white"/>
<path d="M62.8608 17.7211C62.8608 20.2394 60.8192 22.2811 58.3007 22.2811C55.7824 22.2811 53.7408 20.2394 53.7408 17.7211C53.7408 15.2027 55.7824 13.1611 58.3007 13.1611C60.8192 13.1611 62.8608 15.2027 62.8608 17.7211Z" fill="white"/>
</svg>
