<svg width="71" height="67" viewBox="0 0 71 67" fill="none" xmlns="http://www.w3.org/2000/svg">
<path fill-rule="evenodd" clip-rule="evenodd" d="M15.3647 7.34934C15.3647 11.3559 12.314 14.5984 7.54327 14.5984C2.9584 14.5984 -0.0922807 11.3559 0.00213107 7.34934C-0.0922807 3.14802 2.95833 0 7.63466 0C12.3139 0 15.2732 3.14802 15.3647 7.34934ZM0.385693 66.9938V20.325H14.8897V66.9908H0.385693V66.9938Z" fill="white"/>
<path fill-rule="evenodd" clip-rule="evenodd" d="M26.5148 35.2187C26.5148 29.3977 26.323 24.4351 26.1313 20.3312H38.7293L39.399 26.7246H39.6852C41.5941 23.7654 46.3649 19.2838 54.0948 19.2838C63.6363 19.2838 70.7939 25.5828 70.7939 39.3197V67H56.2899V41.1371C56.2899 35.1213 54.1922 31.0203 48.9435 31.0203C44.9339 31.0203 42.5501 33.7878 41.5971 36.4579C41.2136 37.4138 41.0247 38.7473 41.0247 40.0868V67H26.5207V35.2187H26.5148Z" fill="white"/>
</svg>
