<svg width="81" height="66" viewBox="0 0 81 66" fill="none" xmlns="http://www.w3.org/2000/svg">
<path fill-rule="evenodd" clip-rule="evenodd" d="M80.5674 7.75007C77.6054 9.06592 74.4178 9.95209 71.0745 10.3522C74.4877 8.30593 77.1086 5.06734 78.3412 1.20842C75.151 3.10432 71.6089 4.47656 67.8467 5.22042C64.831 2.00868 60.5316 0 55.7812 0C46.6535 0 39.2525 7.40096 39.2525 16.5286C39.2525 17.823 39.4002 19.0851 39.6822 20.2963C25.9437 19.6088 13.7654 13.0269 5.61249 3.02644C4.18923 5.46747 3.37555 8.30597 3.37555 11.3351C3.37555 17.0684 6.28921 22.1277 10.7282 25.0924C8.01592 25.0065 5.47016 24.2626 3.23859 23.0246V23.2314C3.23859 31.242 8.9397 37.9206 16.4964 39.4432C15.1107 39.8191 13.6499 40.0232 12.1434 40.0232C11.0773 40.0232 10.0407 39.9185 9.031 39.7251C11.1337 46.2909 17.2403 51.071 24.4721 51.2053C18.8166 55.6362 11.6895 58.2813 3.94485 58.2813C2.60752 58.2813 1.29168 58.2034 0 58.0476C7.31503 62.7363 16.0023 65.4755 25.3368 65.4755C55.7382 65.4755 72.3635 40.2891 72.3635 18.4487C72.3635 17.7317 72.3501 17.0174 72.3152 16.3111C75.5484 13.9748 78.352 11.0639 80.5674 7.75007Z" fill="white"/>
</svg>
